<svg width="31" height="22" viewBox="0 0 31 22" fill="none" xmlns="http://www.w3.org/2000/svg">
<g id="theatermasks.fill 1" clip-path="url(#clip0_36_801)">
<g id="Group">
<path id="Vector" d="M19.2937 3.47665L27.6212 5.75284C29.2194 6.20467 29.8419 7.22768 29.4129 8.83042L27.8315 14.8065C26.6791 19.1969 23.5332 21.115 19.3862 19.9982C17.4318 19.4639 16.0043 18.4544 15.1703 17.0736C17.3369 15.168 18.0928 12.2199 17.1655 8.72809L16.2314 5.20311C16.6681 3.60792 17.6892 3.03854 19.2937 3.47665ZM17.3842 15.0281C17.2075 15.3094 17.401 15.5908 17.7459 15.514C18.8226 15.2754 19.6553 15.2838 20.5386 15.5311C21.4218 15.7613 22.1284 16.1705 22.9611 16.9378C23.2135 17.1679 23.5332 17.023 23.5163 16.682C23.4658 15.318 22.4565 14.1756 20.9928 13.8005C19.5628 13.3998 18.1076 13.8772 17.3842 15.0281ZM23.3228 10.902C23.163 11.4987 23.4995 12.104 24.0799 12.2574C24.6687 12.4195 25.2575 12.0699 25.4089 11.4817C25.5687 10.8849 25.2323 10.2796 24.6434 10.1347C24.0631 9.97278 23.4742 10.3138 23.3228 10.902ZM18.3767 9.57209C18.217 10.1773 18.5618 10.7741 19.1422 10.919C19.7311 11.081 20.3199 10.74 20.4797 10.1517C20.6311 9.56354 20.2862 8.95831 19.7058 8.79629C19.117 8.63432 18.5282 8.9838 18.3767 9.57209Z" fill="black" fill-opacity="0.85"/>
<path id="Vector_2" d="M11.3025 17.8073C15.4495 16.6734 17.216 13.4169 16.0551 9.02649L14.4738 3.05892C14.0532 1.4562 13.0102 0.876497 11.4035 1.30275L3.06752 3.54484C1.44406 3.98815 0.846838 5.01116 1.28425 6.64797L2.84881 12.607C4.00121 16.9889 7.14718 18.9326 11.3025 17.8073ZM6.27237 9.15438C5.63308 9.33333 5.55737 9.7596 5.27979 9.8022C5.16203 9.82778 5.0022 9.68287 4.93491 9.43565C4.73303 8.71104 5.18726 7.93526 5.90225 7.75623C6.63407 7.5772 7.3827 8.01198 7.57617 8.71104C7.65188 8.96677 7.58459 9.16284 7.45 9.214C7.13877 9.32487 6.84436 9.00091 6.27237 9.15438ZM11.4035 7.7477C10.7726 7.93526 10.6885 8.35298 10.4109 8.38709C10.2932 8.41266 10.1333 8.26774 10.066 8.02903C9.86414 7.31293 10.3184 6.52862 11.0333 6.34959C11.7736 6.15352 12.5223 6.59682 12.7073 7.3044C12.783 7.56868 12.7157 7.75623 12.5811 7.80738C12.2699 7.91821 11.9755 7.58573 11.4035 7.7477ZM10.5119 14.7553C8.75385 15.2156 7.04624 14.6019 6.14619 13.1611C5.96955 12.8883 6.12096 12.6325 6.45742 12.6581C7.56777 12.752 8.89684 12.5558 9.86414 12.2916C10.8063 12.0443 12.026 11.5499 12.968 10.8934C13.2456 10.6889 13.5148 10.8338 13.498 11.1833C13.4391 12.8883 12.2783 14.2609 10.5119 14.7553Z" fill="black" fill-opacity="0.85"/>
</g>
</g>
<defs>
<clipPath id="clip0_36_801">
<rect width="31" height="22" fill="white"/>
</clipPath>
</defs>
</svg>
