<svg width="27" height="20" viewBox="0 0 27 20" fill="none" xmlns="http://www.w3.org/2000/svg">
<g id="creditcard.fill 1" clip-path="url(#clip0_36_787)">
<g id="Group">
<path id="Vector" d="M4.95497 16.0535C4.31233 16.0535 3.88752 15.6088 3.88752 14.9862V12.9295C3.88752 12.2957 4.31233 11.8622 4.95497 11.8622H7.6236C8.26625 11.8622 8.69105 12.2957 8.69105 12.9295V14.9862C8.69105 15.6088 8.26625 16.0535 7.6236 16.0535H4.95497ZM0.5 7.5152V4.99151H26.097V7.5152H0.5ZM3.9202 19.5H22.6768C24.9642 19.5 26.097 18.3548 26.097 16.0646V3.95757C26.097 1.66735 24.9642 0.511124 22.6768 0.511124H3.9202C1.6437 0.511124 0.5 1.66735 0.5 3.95757V16.0646C0.5 18.3548 1.6437 19.5 3.9202 19.5Z" fill="black" fill-opacity="0.85"/>
</g>
</g>
<defs>
<clipPath id="clip0_36_787">
<rect width="26" height="19" fill="white" transform="translate(0.5 0.5)"/>
</clipPath>
</defs>
</svg>
