<svg width="23" height="20" viewBox="0 0 23 20" fill="none" xmlns="http://www.w3.org/2000/svg">
<g id="house.fill 2" clip-path="url(#clip0_34_633)">
<g id="Group">
<path id="Vector" d="M8.8827 18.0287V12.7214C8.8827 12.3062 9.16393 12.0354 9.58125 12.0354H13.0922C13.5186 12.0354 13.7817 12.3062 13.7817 12.7214V18.0287H8.8827ZM3.33052 17.4963C3.33052 18.7509 4.09259 19.482 5.37176 19.482H17.3016C18.5809 19.482 19.3338 18.7509 19.3338 17.4963V10.3295L11.8765 4.11046C11.5318 3.82162 11.1235 3.83065 10.7878 4.11046L3.33052 10.3295V17.4963ZM1.28021 10.1399C1.53423 10.1399 1.74289 10.0045 1.93341 9.8511L11.0147 2.2601C11.1145 2.17887 11.2324 2.13373 11.3322 2.13373C11.441 2.13373 11.5499 2.17887 11.6498 2.2601L20.74 9.8511C20.9215 10.0045 21.1301 10.1399 21.3842 10.1399C21.874 10.1399 22.1644 9.78788 22.1644 9.41783C22.1644 9.21023 22.0827 8.9936 21.874 8.83113L12.4208 0.933255C12.0761 0.644418 11.7041 0.5 11.3322 0.5C10.9603 0.5 10.5883 0.644418 10.2435 0.933255L0.79031 8.83113C0.590722 8.9936 0.5 9.21023 0.5 9.41783C0.5 9.78788 0.79031 10.1399 1.28021 10.1399ZM17.2382 5.34704L19.5153 7.26058V3.1898C19.5153 2.79264 19.2613 2.53991 18.8621 2.53991H17.8914C17.5013 2.53991 17.2382 2.79264 17.2382 3.1898V5.34704Z" fill="black"/>
</g>
</g>
<defs>
<clipPath id="clip0_34_633">
<rect width="22" height="19" fill="white" transform="translate(0.5 0.5)"/>
</clipPath>
</defs>
</svg>
