<svg width="9" height="12" viewBox="0 0 9 12" fill="none" xmlns="http://www.w3.org/2000/svg">
<g id="chevron.right 1" clip-path="url(#clip0_33_347)">
<g id="Group">
<path id="Vector" d="M9 5.99654C9 5.82383 8.92478 5.66493 8.78188 5.54058L2.82706 0.17962C2.69172 0.0621761 2.52631 0 2.33082 0C1.94736 0 1.64661 0.26943 1.64661 0.62867C1.64661 0.801379 1.7218 0.960274 1.8421 1.07772L7.31576 5.99654L1.8421 10.9154C1.7218 11.0328 1.64661 11.1848 1.64661 11.3644C1.64661 11.7237 1.94736 11.9931 2.33082 11.9931C2.52631 11.9931 2.69172 11.9309 2.82706 11.8066L8.78188 6.4525C8.92478 6.32124 9 6.16925 9 5.99654Z" fill="#71717B"/>
</g>
</g>
<defs>
<clipPath id="clip0_33_347">
<rect width="9" height="12" fill="white"/>
</clipPath>
</defs>
</svg>
