<svg xmlns="http://www.w3.org/2000/svg" width="200" height="200" viewBox="0 0 200 200" fill="none">
  <path d="M70 35C70 27.8203 75.8203 22 83 22H117C124.18 22 130 27.8203 130 35V165C130 172.18 124.18 178 117 178H83C75.8203 178 70 172.18 70 165V35Z" stroke="#0E7490" stroke-width="6" stroke-linecap="round" stroke-linejoin="round"/>
  <path d="M70 45H130" stroke="#0E7490" stroke-width="6" stroke-linecap="round" stroke-linejoin="round"/>
  <path d="M70 145H130" stroke="#0E7490" stroke-width="6" stroke-linecap="round" stroke-linejoin="round"/>
  <circle cx="100" cy="162" r="5" fill="#0E7490"/>
  <path d="M93 35C93 33.3431 94.3431 32 96 32H104C105.657 32 107 33.3431 107 35V35C107 36.6569 105.657 38 104 38H96C94.3431 38 93 36.6569 93 35V35Z" fill="#0E7490"/>
  <path d="M147.071 52.9289C147.462 53.3194 148.095 53.3194 148.485 52.9289L155.121 46.2929C155.512 45.9024 155.512 45.2692 155.121 44.8787C154.731 44.4882 154.098 44.4882 153.707 44.8787L147.778 50.8076L141.849 44.8787C141.458 44.4882 140.825 44.4882 140.435 44.8787C140.044 45.2692 140.044 45.9024 140.435 46.2929L147.071 52.9289ZM146.75 52V52.2218H148.75V52H146.75Z" fill="#0E7490"/>
  <path d="M147.071 117.929C147.462 117.538 148.095 117.538 148.485 117.929L155.121 124.565C155.512 124.955 155.512 125.588 155.121 125.979C154.731 126.369 154.098 126.369 153.707 125.979L147.778 120.05L141.849 125.979C141.458 126.369 140.825 126.369 140.435 125.979C140.044 125.588 140.044 124.955 140.435 124.565L147.071 117.929ZM146.75 118.858V118.636H148.75V118.858H146.75Z" fill="#0E7490"/>
  <path d="M52.9289 117.929C53.3195 117.538 53.9526 117.538 54.3431 117.929L60.9792 124.565C61.3697 124.955 61.3697 125.588 60.9792 125.979C60.5887 126.369 59.9555 126.369 59.565 125.979L53.636 120.05L47.7071 125.979C47.3166 126.369 46.6834 126.369 46.2929 125.979C45.9024 125.588 45.9024 124.955 46.2929 124.565L52.9289 117.929ZM52.6078 118.858V118.636H54.6078V118.858H52.6078Z" fill="#0E7490"/>
  <path d="M52.9289 52.9289C53.3195 53.3194 53.9526 53.3194 54.3431 52.9289L60.9792 46.2929C61.3697 45.9024 61.3697 45.2692 60.9792 44.8787C60.5887 44.4882 59.9555 44.4882 59.565 44.8787L53.636 50.8076L47.7071 44.8787C47.3166 44.4882 46.6834 44.4882 46.2929 44.8787C45.9024 45.2692 45.9024 45.9024 46.2929 46.2929L52.9289 52.9289ZM52.6078 52V52.2218H54.6078V52H52.6078Z" fill="#0E7490"/>
</svg> 