<svg width="11" height="14" viewBox="0 0 11 14" fill="none" xmlns="http://www.w3.org/2000/svg">
<g id="rhombus 1" clip-path="url(#clip0_41_401)">
<g id="Group">
<path id="Vector" d="M5.36889 13.9931C5.74844 13.9931 5.93476 13.7404 6.32811 13.2211L10.448 7.7755C10.6342 7.52271 10.7447 7.26986 10.7447 6.99657C10.7447 6.71644 10.6342 6.47046 10.448 6.21766L6.32811 0.76525C5.93476 0.252806 5.74844 0 5.36889 0C4.98934 0 4.80302 0.252806 4.41656 0.76525L0.296738 6.21766C0.103513 6.47046 0 6.71644 0 6.99657C0 7.26986 0.103513 7.52271 0.296738 7.7755L4.41656 13.2211C4.80302 13.7404 4.98934 13.9931 5.36889 13.9931ZM5.36889 12.5515C5.33438 12.5515 5.32058 12.531 5.29988 12.4968L1.31117 7.18107C1.24906 7.10586 1.24216 7.05121 1.24216 6.99657C1.24216 6.94191 1.24906 6.88725 1.31117 6.81209L5.29988 1.48951C5.32058 1.46217 5.33438 1.44168 5.36889 1.44168C5.40339 1.44168 5.4172 1.46217 5.43789 1.48951L9.4335 6.81209C9.48869 6.88725 9.50254 6.94191 9.50254 6.99657C9.50254 7.05121 9.48869 7.10586 9.4335 7.18107L5.43789 12.4968C5.4172 12.531 5.40339 12.5515 5.36889 12.5515Z" fill="black" fill-opacity="0.85"/>
</g>
</g>
<defs>
<clipPath id="clip0_41_401">
<rect width="11" height="14" fill="white"/>
</clipPath>
</defs>
</svg>
