<svg width="20" height="24" viewBox="0 0 20 24" fill="none" xmlns="http://www.w3.org/2000/svg">
<g id="rhombus.fill 1" clip-path="url(#clip0_34_112)">
<g id="Group">
<path id="Vector" d="M9.77353 23.9882C10.4291 23.9882 10.7509 23.5549 11.4304 22.6647L18.5465 13.3294C18.8682 12.8961 19.059 12.4626 19.059 11.9941C19.059 11.5139 18.8682 11.0922 18.5465 10.6588L11.4304 1.31186C10.7509 0.433381 10.4291 0 9.77353 0C9.11795 0 8.79612 0.433381 8.12861 1.31186L1.01255 10.6588C0.678795 11.0922 0.5 11.5139 0.5 11.9941C0.5 12.4626 0.678795 12.8961 1.01255 13.3294L8.12861 22.6647C8.79612 23.5549 9.11795 23.9882 9.77353 23.9882Z" fill="#E17100"/>
</g>
</g>
<defs>
<clipPath id="clip0_34_112">
<rect width="19" height="24" fill="white" transform="translate(0.5)"/>
</clipPath>
</defs>
</svg>
