<svg width="24" height="24" viewBox="0 0 24 24" fill="none" xmlns="http://www.w3.org/2000/svg">
<g id="rublesign.circle.fill 1" clip-path="url(#clip0_34_88)">
<g id="Group">
<path id="Vector" d="M23.5725 11.9941C23.5725 18.6027 18.2918 23.9883 11.7862 23.9883C5.29225 23.9883 0 18.6027 0 11.9941C0 5.37385 5.29225 0 11.7862 0C18.2918 0 23.5725 5.37385 23.5725 11.9941ZM9.76408 6.54974C9.3481 6.54974 9.05922 6.86723 9.05922 7.31408V12.4645H7.82283C7.58017 12.4645 7.41839 12.6292 7.41839 12.8761C7.41839 13.123 7.58017 13.2759 7.82283 13.2759H9.05922V14.8516H7.82283C7.58017 14.8516 7.41839 15.0044 7.41839 15.2396C7.41839 15.4983 7.58017 15.6629 7.82283 15.6629H9.05922V16.8389C9.05922 17.2974 9.31343 17.5678 9.75253 17.5678C10.1916 17.5678 10.4574 17.2974 10.4574 16.8389V15.6629H13.3115C13.5426 15.6629 13.6929 15.4983 13.6929 15.2396C13.6929 15.0044 13.5426 14.8516 13.3115 14.8516H10.4574V13.2759H12.5836C14.8136 13.2759 16.0616 11.759 16.0616 9.92457C16.0616 8.04314 14.779 6.54974 12.6067 6.54974H9.76408ZM14.6172 9.92457C14.6172 11.3356 13.7043 12.0999 12.2485 12.0999H10.4574V7.78443H12.2485C13.947 7.78443 14.6172 8.74866 14.6172 9.92457Z" fill="#009966"/>
</g>
</g>
<defs>
<clipPath id="clip0_34_88">
<rect width="24" height="24" fill="white"/>
</clipPath>
</defs>
</svg>
