<svg width="11" height="14" viewBox="0 0 11 14" fill="none" xmlns="http://www.w3.org/2000/svg">
<g id="rublesign 1" clip-path="url(#clip0_34_97)">
<g id="Group">
<path id="Vector" d="M2.82554 13.9923C3.28639 13.9923 3.57348 13.6837 3.57348 13.2056V11.4931H7.29805C7.59269 11.4931 7.77399 11.3003 7.77399 10.9917C7.77399 10.6832 7.59269 10.4827 7.29805 10.4827H3.57348V8.47712H6.3839C8.93744 8.47712 10.7204 6.81873 10.7204 4.24242C10.7204 1.6584 8.9526 0 6.39901 0H2.82554C2.36469 0 2.07005 0.300826 2.07005 0.794491V7.45896H0.49107C0.188873 7.45896 0 7.65951 0 7.96806C0 8.27658 0.188873 8.47712 0.49107 8.47712H2.07005V10.4827H0.49107C0.188873 10.4827 0.00755491 10.6832 0.00755491 10.9917C0.00755491 11.3003 0.188873 11.4931 0.49107 11.4931H2.07005V13.2056C2.07005 13.6837 2.36469 13.9923 2.82554 13.9923ZM3.57348 7.15813V1.34215H6.02127C7.99308 1.34215 9.18678 2.32948 9.18678 4.24242C9.18678 6.15538 7.99308 7.15813 6.02127 7.15813H3.57348Z" fill="black" fill-opacity="0.85"/>
</g>
</g>
<defs>
<clipPath id="clip0_34_97">
<rect width="11" height="14" fill="white"/>
</clipPath>
</defs>
</svg>
