<svg width="13" height="10" viewBox="0 0 13 10" fill="none" xmlns="http://www.w3.org/2000/svg">
<g id="camera.fill 1" clip-path="url(#clip0_34_754)">
<g id="Group">
<path id="Vector" d="M10.8047 3.89143C10.4501 3.89143 10.158 3.60732 10.158 3.26231C10.158 2.91224 10.4501 2.63319 10.8047 2.63319C11.1645 2.63319 11.4565 2.91224 11.4565 3.26231C11.4565 3.60732 11.1645 3.89143 10.8047 3.89143ZM1.63739 9.67529H11.1697C12.2543 9.67529 12.8071 9.14765 12.8071 8.1025V2.79047C12.8071 1.74531 12.2543 1.22273 11.1697 1.22273H9.6783C9.26634 1.22273 9.14118 1.14156 8.90655 0.887874L8.48935 0.431254C8.22867 0.152208 7.96269 0 7.42557 0H5.34499C4.80787 0 4.54192 0.152208 4.28119 0.431254L3.86402 0.887874C3.62937 1.13648 3.499 1.22273 3.09226 1.22273H1.63739C0.547533 1.22273 0 1.74531 0 2.79047V8.1025C0 9.14765 0.547533 9.67529 1.63739 9.67529ZM6.40354 8.17862C4.8235 8.17862 3.55636 6.9508 3.55636 5.40337C3.55636 3.86099 4.8235 2.63319 6.40354 2.63319C7.98357 2.63319 9.24551 3.86099 9.24551 5.40337C9.24551 6.9508 7.97834 8.17862 6.40354 8.17862ZM6.40354 7.40742C7.54032 7.40742 8.45806 6.51954 8.45806 5.40337C8.45806 4.29225 7.54032 3.3993 6.40354 3.3993C5.26675 3.3993 4.34377 4.29225 4.34377 5.40337C4.34377 6.51954 5.27196 7.40742 6.40354 7.40742Z" fill="black" fill-opacity="0.85"/>
</g>
</g>
<defs>
<clipPath id="clip0_34_754">
<rect width="13" height="10" fill="white"/>
</clipPath>
</defs>
</svg>
