<svg width="16" height="14" viewBox="0 0 16 14" fill="none" xmlns="http://www.w3.org/2000/svg">
<g id="clock.fill 1" clip-path="url(#clip0_137_109)">
<g id="Group">
<path id="Vector" d="M4.08932 7.73738C3.80043 7.73738 3.58377 7.53165 3.58377 7.25722C3.58377 6.98972 3.80043 6.78394 4.08932 6.78394H7.36086V2.63401C7.36086 2.36649 7.57752 2.16071 7.85917 2.16071C8.14081 2.16071 8.36474 2.36649 8.36474 2.63401V7.25722C8.36474 7.53165 8.14081 7.73738 7.85917 7.73738H4.08932ZM7.8664 13.9932C11.9324 13.9932 15.2328 10.8516 15.2328 6.99659C15.2328 3.13474 11.9324 0 7.8664 0C3.80766 0 0.5 3.13474 0.5 6.99659C0.5 10.8516 3.80766 13.9932 7.8664 13.9932Z" fill="black" fill-opacity="0.85"/>
</g>
</g>
<defs>
<clipPath id="clip0_137_109">
<rect width="15" height="14" fill="white" transform="translate(0.5)"/>
</clipPath>
</defs>
</svg>
