<svg width="241" height="151" viewBox="0 0 241 151" fill="none" xmlns="http://www.w3.org/2000/svg">
<g id="Highlight/Arrow15">
<g id="Arrow">
<path id="Vector 260" d="M119.949 134.728C125.588 121.418 130.785 108.436 132.39 93.9666" stroke="#005F78" stroke-width="5" stroke-linecap="round" stroke-linejoin="round"/>
<path id="Vector 261" d="M119.574 134.647C113.527 121.646 106.726 109.042 99.5563 96.6302C97.7904 93.5733 94.8618 90.082 93.7345 86.6929" stroke="#005F78" stroke-width="5" stroke-linecap="round" stroke-linejoin="round"/>
<path id="Vector 262" d="M104.134 139.883C92.5673 127.698 81.6927 114.702 69.2035 103.437" stroke="#005F78" stroke-width="5" stroke-linecap="round" stroke-linejoin="round"/>
<path id="Vector 263" d="M102.22 140.362C92.0732 140.425 82.176 141.371 72.101 142.493C68.6274 142.88 65.051 143.719 61.5473 143.719" stroke="#005F78" stroke-width="5" stroke-linecap="round" stroke-linejoin="round"/>
<path id="Vector 264" d="M147.984 107.873C147.304 117.821 142.446 127.38 138.148 136.22C137.448 137.661 137.548 139.056 136.979 140.482" stroke="#005F78" stroke-width="5" stroke-linecap="round" stroke-linejoin="round"/>
<path id="Vector 265" d="M134.782 140.362C148.723 140.855 162.049 145.344 175.933 146.117" stroke="#005F78" stroke-width="5" stroke-linecap="round" stroke-linejoin="round"/>
<path id="Vector 267" d="M139.819 137.439C144.565 136.634 149.189 134.195 153.555 132.329C168.937 125.757 184.063 118.645 199.23 111.596C209.673 106.742 220.128 101.932 230.79 97.5765C232.264 96.9743 233.63 96.3986 235.003 95.634" stroke="#005F78" stroke-width="5" stroke-linecap="round" stroke-linejoin="round"/>
<path id="Vector 268" d="M101.897 140.1C91.5693 135.999 81.7139 131.171 71.8968 125.953C54.4281 116.67 37.0345 107.237 19.5857 97.9146C15.3592 95.6565 11.1936 93.2866 6.96609 91.0316C6.12246 90.5816 5.35047 90.1623 4.43795 89.9337" stroke="#005F78" stroke-width="5" stroke-linecap="round" stroke-linejoin="round"/>
<path id="Vector 269" d="M119.72 130.285C119.72 114.709 118.73 99.2856 117.614 83.7503C116.142 63.2696 115.388 42.7549 114.053 22.2675C113.657 16.183 112.515 9.82562 112.515 3.72973" stroke="#005F78" stroke-width="5" stroke-linecap="round" stroke-linejoin="round"/>
</g>
</g>
</svg>
