<svg width="145" height="161" viewBox="0 0 145 161" fill="none" xmlns="http://www.w3.org/2000/svg">
<g id="Highlight/Happy">
<path id="Happy" d="M3.21301 64.6033C5.07828 64.3865 6.84927 65.8616 7.01086 67.7879C11.177 116.185 34.3966 149.887 66.173 153.648C96.2877 157.242 124.594 133.416 138.156 93.0037C138.771 91.1755 140.766 90.1725 142.6 90.7947C144.44 91.4065 145.431 93.3848 144.819 95.2166C131.155 135.937 103.127 161 72.1691 161C69.9035 161 67.6306 160.864 65.3439 160.595C37.3085 157.273 5.42246 131.305 0.0128135 68.3816C-0.152037 66.4591 1.2778 64.7678 3.21301 64.6033ZM57.3009 0.342552C59.1325 -0.325368 61.0141 -0.00792925 62.504 1.21951C70.4294 7.7484 65.0118 46.4638 61.0773 68.9597C60.7778 70.6591 59.295 71.858 57.6114 71.8582C57.4107 71.8582 57.2093 71.8414 57.005 71.8064C55.0889 71.4776 53.8032 69.6657 54.1378 67.7635C60.6824 30.3215 59.9042 13.6793 58.6114 8.34646C55.8886 12.5463 50.4426 25.7445 45.2999 56.6052C44.9791 58.5108 43.1546 59.8224 41.2491 59.4832C39.3331 59.1683 38.0302 57.3669 38.3507 55.4646C40.922 40.0466 47.9069 3.8227 57.3009 0.342552ZM99.6368 3.11697C101.59 2.36515 103.678 2.71317 105.346 4.08669C112.862 10.2773 112.677 40.7774 107.79 65.3816C107.459 67.0609 105.972 68.2205 104.304 68.2205C104.08 68.2205 103.845 68.1988 103.617 68.1531C101.69 67.7806 100.43 65.9362 100.811 64.032C106.249 36.6629 103.974 15.8742 101.505 10.576C99.5166 13.471 94.3696 24.5206 89.1622 64.8679C88.9168 66.7932 87.163 68.1213 85.1818 67.907C83.2327 67.6611 81.8559 65.9015 82.1046 63.9763C89.4495 7.07565 97.1182 4.09731 99.6368 3.11697Z" fill="#005F78"/>
</g>
</svg>
