<svg width="24" height="24" viewBox="0 0 24 24" fill="none" xmlns="http://www.w3.org/2000/svg">
<g id="arrow.down.backward.and.arrow.up.forward 1" clip-path="url(#clip0_119_214)">
<g id="Group">
<path id="Vector" d="M22.3943 10.1708C23.0612 10.1708 23.543 9.65531 23.543 9.00156V2.0241C23.543 0.741749 22.8018 0 21.5419 0H14.6865C14.032 0 13.5255 0.477737 13.5255 1.15663C13.5255 1.83551 14.032 2.30068 14.6865 2.30068H15.7241L20.0473 2.04924L16.6135 5.35568L12.8091 9.22786C12.5867 9.45415 12.4632 9.75588 12.4632 10.0953C12.4632 10.7994 12.9943 11.2645 13.686 11.2645C13.9825 11.2645 14.2666 11.164 14.4766 10.9376L18.2687 7.04033L21.5296 3.55788L21.2702 7.94552V9.00156C21.2702 9.66788 21.752 10.1708 22.3943 10.1708ZM8.84406 23.9874C9.51107 23.9874 10.0052 23.5096 10.0052 22.8308C10.0052 22.1518 9.49872 21.6867 8.84406 21.6867H7.81884L3.49563 21.9381L6.91714 18.6318L10.7339 14.7595C10.9563 14.5333 11.0674 14.2315 11.0674 13.8921C11.0674 13.188 10.5486 12.7229 9.84457 12.7229C9.54813 12.7229 9.27638 12.8235 9.0664 13.0497L5.26197 16.9471L2.01339 20.4295L2.26042 16.0418V14.9858C2.26042 14.3195 1.79105 13.8166 1.13639 13.8166C0.481729 13.8166 0 14.3321 0 14.9858V21.9632C0 23.2456 0.728771 23.9874 1.98868 23.9874H8.84406Z" fill="black" fill-opacity="0.85"/>
</g>
</g>
<defs>
<clipPath id="clip0_119_214">
<rect width="24" height="24" fill="white"/>
</clipPath>
</defs>
</svg>
